<svg xmlns="http://www.w3.org/2000/svg" viewBox="0 0 48 48" role="img" aria-labelledby="title">
  <title id="title">WhatsApp</title>
  <circle cx="24" cy="24" r="22" fill="#25D366"/>
  <path fill="#fff" d="M35.6 12.3A16.3 16.3 0 0 0 9.9 31.9L7.6 40.4l8.7-2.3a16.3 16.3 0 0 0 19.3-25.8Zm-11.5 22a13.5 13.5 0 0 1-6.9-1.9l-.5-.3-5.1 1.3 1.4-5-.3-.5a13.5 13.5 0 1 1 11.4 6.4Z"/>
  <path fill="#fff" d="M31.5 27.5c-.4-.2-2.5-1.2-2.9-1.4-.4-.1-.7-.2-1 .2-.3.5-1.1 1.4-1.4 1.7-.3.3-.5.4-1 .1a11 11 0 0 1-3.4-2.1 12.5 12.5 0 0 1-2.4-3c-.2-.5 0-.7.2-.9l.7-.8.5-.8c.2-.3.1-.6 0-.8l-1.3-3.1c-.3-.8-.7-.7-1-.7h-.8c-.3 0-.8.1-1.2.6-.4.4-1.6 1.6-1.6 3.8s1.7 4.5 1.9 4.8c.2.3 3.2 4.9 7.8 6.9 1.1.5 1.9.7 2.6.9 1.1.3 2.1.3 2.9.2.9-.1 2.5-1 2.9-2 .4-1 .4-1.8.3-2-.1-.3-.4-.4-.8-.6Z"/>
</svg>
