<svg width="70" height="70" viewBox="0 0 70 70" fill="none" xmlns="http://www.w3.org/2000/svg">
<circle cx="35" cy="35.0001" r="35" fill="white"/>
<path fill-rule="evenodd" clip-rule="evenodd" d="M49.2366 10.9287C49.8612 10.8253 50.0664 10.6935 50.0664 10.3957C50.0664 10.0077 49.8232 10 37.6755 10C24.987 10 21.9702 10.2423 26.1143 10.9287C27.6966 11.1909 29.1412 12.4045 28.6814 13.085C28.6241 13.1696 25.2976 13.2389 21.2887 13.2389H14V14.6559V16.0729H14.9464C15.467 16.0729 16.1142 16.2148 16.3846 16.3881L16.8765 16.703V35.2069C16.8765 51.2564 16.9953 53.8245 16.1252 54.1449C15.8577 54.2434 15.4968 54.1296 15.0103 54.1296H14V55.5466V56.9636H21.3018C28.2048 56.9636 28.6036 56.9836 28.6036 57.3306C28.6036 57.9113 27.4822 58.7358 26.3356 58.998C22.6557 59.8395 24.473 60 37.6755 60C50.9116 60 52.5729 59.8545 48.9742 59.0107C46.758 58.4911 45.5981 55.3917 47.3558 54.6864C62.4017 48.6506 63.021 23.7342 48.3133 16.165L46.7575 15.3644L46.7525 13.8834C46.7452 11.7907 47.1841 11.2688 49.2366 10.9287ZM36.0713 13.2445C34.9776 13.237 34.9484 12.6569 35.9938 11.7004C37.3721 10.4395 39.6717 11.0723 40.0344 12.8123L40.1773 13.4992L38.5393 13.3747C37.6383 13.3061 36.5278 13.2476 36.0713 13.2445ZM43.4284 14.0486C43.3067 14.0486 43.2071 13.9119 43.2071 13.7449C43.2071 13.5779 43.3067 13.4413 43.4284 13.4413C43.5501 13.4413 43.6496 13.5779 43.6496 13.7449C43.6496 13.9119 43.5501 14.0486 43.4284 14.0486ZM31.9006 54.1296C31.6592 54.1296 31.6258 16.4123 31.8672 16.1899C32.2788 15.8103 32.4071 19.8486 32.4359 34.0891C32.4655 48.8158 32.3237 54.1296 31.9006 54.1296ZM35.2415 35.2569C35.2415 24.8542 35.3163 16.2727 35.4075 16.187C35.6122 15.9949 38.1527 16.2126 39.2796 16.5188L40.1094 16.7443V35.1383V53.5324L39.5009 53.7648C39.1663 53.8927 38.0709 54.0364 37.067 54.0842L35.2415 54.1711V35.2569ZM43.5943 51.8184C43.0797 52.2893 42.7026 29.1595 43.098 21.3684C43.216 19.0431 43.3191 18.3211 43.508 18.4939C43.7974 18.7587 43.8824 51.5549 43.5943 51.8184ZM47.1407 48.0577C46.6954 47.9952 46.7571 44.9046 46.7571 35.2024C46.7571 25.4284 46.7007 22.3667 47.1391 22.3062C47.3774 22.2734 47.7618 23.127 48.3808 24.2713C52.2587 31.4395 52.2868 38.8686 48.4631 45.948C47.7974 47.1805 47.3898 48.0926 47.1407 48.0577ZM43.4284 56.5587C43.3067 56.5587 43.2071 56.4676 43.2071 56.3563C43.2071 56.2449 43.3067 56.1538 43.4284 56.1538C43.5501 56.1538 43.6496 56.2449 43.6496 56.3563C43.6496 56.4676 43.5501 56.5587 43.4284 56.5587ZM36.7961 58.7877C36.0421 58.5018 35.136 57.4858 35.3513 57.1674C35.681 56.6791 40.153 56.9219 39.9875 57.419C39.6047 58.568 38.0153 59.2496 36.7961 58.7877ZM28.7706 35.1518L28.827 54.1296L24.8544 54.1711V16.4565C25.0629 16.1004 25.2859 16.0634 26.9011 16.1154L28.7142 16.1741L28.7706 35.1518Z" fill="url(#paint0_linear_0_5)"/>
<defs>
<linearGradient id="paint0_linear_0_5" x1="59" y1="10" x2="2.68848" y2="81.6638" gradientUnits="userSpaceOnUse">
<stop offset="0.0001" stop-color="#6D42C7"/>
<stop offset="1" stop-color="#A097ED"/>
</linearGradient>
</defs>
</svg>
